<svg xmlns="http://www.w3.org/2000/svg" xmlns:xlink="http://www.w3.org/1999/xlink" width="1920" zoomAndPan="magnify" viewBox="0 0 1440 809.999993" height="1080" preserveAspectRatio="xMidYMid meet" version="1.0"><path fill="#1a1a1a" d="M 1125 405 C 1125 411.628906 1124.835938 418.253906 1124.511719 424.871094 C 1124.1875 431.492188 1123.699219 438.101562 1123.050781 444.695312 C 1122.398438 451.292969 1121.589844 457.871094 1120.617188 464.425781 C 1119.644531 470.980469 1118.511719 477.511719 1117.21875 484.011719 C 1115.925781 490.511719 1114.472656 496.976562 1112.863281 503.40625 C 1111.253906 509.835938 1109.484375 516.222656 1107.5625 522.566406 C 1105.636719 528.90625 1103.558594 535.199219 1101.324219 541.441406 C 1099.09375 547.679688 1096.707031 553.863281 1094.171875 559.988281 C 1091.632812 566.109375 1088.949219 572.167969 1086.117188 578.160156 C 1083.28125 584.152344 1080.300781 590.070312 1077.179688 595.914062 C 1074.054688 601.761719 1070.789062 607.527344 1067.378906 613.210938 C 1063.972656 618.898438 1060.425781 624.496094 1056.746094 630.003906 C 1053.0625 635.515625 1049.246094 640.933594 1045.300781 646.257812 C 1041.351562 651.582031 1037.273438 656.804688 1033.070312 661.929688 C 1028.863281 667.054688 1024.535156 672.070312 1020.085938 676.980469 C 1015.632812 681.890625 1011.066406 686.691406 1006.378906 691.378906 C 1001.691406 696.066406 996.890625 700.632812 991.980469 705.085938 C 987.070312 709.535156 982.054688 713.863281 976.929688 718.070312 C 971.804688 722.273438 966.582031 726.351562 961.257812 730.300781 C 955.933594 734.246094 950.515625 738.0625 945.003906 741.746094 C 939.496094 745.425781 933.898438 748.972656 928.210938 752.378906 C 922.527344 755.789062 916.761719 759.054688 910.914062 762.179688 C 905.070312 765.300781 899.152344 768.28125 893.160156 771.117188 C 887.167969 773.949219 881.109375 776.632812 874.988281 779.171875 C 868.863281 781.707031 862.679688 784.09375 856.441406 786.324219 C 850.199219 788.558594 843.90625 790.636719 837.566406 792.5625 C 831.222656 794.484375 824.835938 796.253906 818.40625 797.863281 C 811.976562 799.472656 805.511719 800.925781 799.011719 802.21875 C 792.511719 803.511719 785.980469 804.644531 779.425781 805.617188 C 772.871094 806.589844 766.292969 807.398438 759.695312 808.050781 C 753.101562 808.699219 746.492188 809.1875 739.871094 809.511719 C 733.253906 809.835938 726.628906 810 720 810 C 713.371094 810 706.746094 809.835938 700.128906 809.511719 C 693.507812 809.1875 686.898438 808.699219 680.304688 808.050781 C 673.707031 807.398438 667.128906 806.589844 660.574219 805.617188 C 654.019531 804.644531 647.488281 803.511719 640.988281 802.21875 C 634.488281 800.925781 628.023438 799.472656 621.59375 797.863281 C 615.164062 796.253906 608.777344 794.484375 602.433594 792.5625 C 596.09375 790.636719 589.800781 788.558594 583.558594 786.324219 C 577.320312 784.09375 571.136719 781.707031 565.011719 779.171875 C 558.890625 776.632812 552.832031 773.949219 546.839844 771.117188 C 540.847656 768.28125 534.929688 765.300781 529.085938 762.179688 C 523.238281 759.054688 517.472656 755.789062 511.789062 752.378906 C 506.101562 748.972656 500.503906 745.425781 494.992188 741.746094 C 489.484375 738.0625 484.066406 734.246094 478.742188 730.300781 C 473.417969 726.351562 468.195312 722.273438 463.070312 718.070312 C 457.945312 713.863281 452.929688 709.535156 448.019531 705.085938 C 443.109375 700.632812 438.308594 696.066406 433.621094 691.378906 C 428.933594 686.691406 424.367188 681.890625 419.914062 676.980469 C 415.464844 672.070312 411.136719 667.054688 406.929688 661.929688 C 402.726562 656.804688 398.648438 651.582031 394.699219 646.257812 C 390.753906 640.933594 386.9375 635.515625 383.253906 630.003906 C 379.574219 624.496094 376.027344 618.898438 372.621094 613.210938 C 369.210938 607.527344 365.945312 601.761719 362.820312 595.914062 C 359.699219 590.070312 356.71875 584.152344 353.882812 578.160156 C 351.050781 572.167969 348.367188 566.109375 345.828125 559.988281 C 343.292969 553.863281 340.90625 547.679688 338.675781 541.441406 C 336.441406 535.199219 334.363281 528.90625 332.4375 522.566406 C 330.515625 516.222656 328.746094 509.835938 327.136719 503.40625 C 325.527344 496.976562 324.074219 490.511719 322.78125 484.011719 C 321.488281 477.511719 320.355469 470.980469 319.382812 464.425781 C 318.410156 457.871094 317.601562 451.292969 316.949219 444.695312 C 316.300781 438.101562 315.8125 431.492188 315.488281 424.871094 C 315.164062 418.253906 315 411.628906 315 405 C 315 398.371094 315.164062 391.746094 315.488281 385.128906 C 315.8125 378.507812 316.300781 371.898438 316.949219 365.304688 C 317.601562 358.707031 318.410156 352.128906 319.382812 345.574219 C 320.355469 339.019531 321.488281 332.488281 322.78125 325.988281 C 324.074219 319.488281 325.527344 313.023438 327.136719 306.59375 C 328.746094 300.164062 330.515625 293.777344 332.4375 287.433594 C 334.363281 281.09375 336.441406 274.800781 338.675781 268.558594 C 340.90625 262.320312 343.292969 256.136719 345.828125 250.011719 C 348.367188 243.890625 351.050781 237.832031 353.882812 231.839844 C 356.71875 225.847656 359.699219 219.929688 362.820312 214.085938 C 365.945312 208.238281 369.210938 202.472656 372.621094 196.789062 C 376.027344 191.101562 379.574219 185.503906 383.253906 179.992188 C 386.9375 174.484375 390.753906 169.066406 394.699219 163.742188 C 398.648438 158.417969 402.726562 153.195312 406.929688 148.070312 C 411.136719 142.945312 415.464844 137.929688 419.914062 133.019531 C 424.367188 128.109375 428.933594 123.308594 433.621094 118.621094 C 438.308594 113.933594 443.109375 109.367188 448.019531 104.914062 C 452.929688 100.464844 457.945312 96.136719 463.070312 91.929688 C 468.195312 87.726562 473.417969 83.648438 478.742188 79.699219 C 484.066406 75.753906 489.484375 71.9375 494.992188 68.253906 C 500.503906 64.574219 506.101562 61.027344 511.789062 57.621094 C 517.472656 54.210938 523.238281 50.945312 529.085938 47.820312 C 534.929688 44.699219 540.847656 41.71875 546.839844 38.882812 C 552.832031 36.050781 558.890625 33.367188 565.011719 30.828125 C 571.136719 28.292969 577.320312 25.90625 583.558594 23.675781 C 589.800781 21.441406 596.09375 19.363281 602.433594 17.4375 C 608.777344 15.515625 615.164062 13.746094 621.59375 12.136719 C 628.023438 10.527344 634.488281 9.074219 640.988281 7.78125 C 647.488281 6.488281 654.019531 5.355469 660.574219 4.382812 C 667.128906 3.410156 673.707031 2.601562 680.304688 1.949219 C 686.898438 1.300781 693.507812 0.8125 700.128906 0.488281 C 706.746094 0.164062 713.371094 0 720 0 C 726.628906 0 733.253906 0.164062 739.871094 0.488281 C 746.492188 0.8125 753.101562 1.300781 759.695312 1.949219 C 766.292969 2.601562 772.871094 3.410156 779.425781 4.382812 C 785.980469 5.355469 792.511719 6.488281 799.011719 7.78125 C 805.511719 9.074219 811.976562 10.527344 818.40625 12.136719 C 824.835938 13.746094 831.222656 15.515625 837.566406 17.4375 C 843.90625 19.363281 850.199219 21.441406 856.441406 23.675781 C 862.679688 25.90625 868.863281 28.292969 874.988281 30.828125 C 881.109375 33.367188 887.167969 36.050781 893.160156 38.882812 C 899.152344 41.71875 905.070312 44.699219 910.914062 47.820312 C 916.761719 50.945312 922.527344 54.210938 928.210938 57.621094 C 933.898438 61.027344 939.496094 64.574219 945.003906 68.253906 C 950.515625 71.9375 955.933594 75.753906 961.257812 79.699219 C 966.582031 83.648438 971.804688 87.726562 976.929688 91.929688 C 982.054688 96.136719 987.070312 100.464844 991.980469 104.914062 C 996.890625 109.367188 1001.691406 113.933594 1006.378906 118.621094 C 1011.066406 123.308594 1015.632812 128.109375 1020.085938 133.019531 C 1024.535156 137.929688 1028.863281 142.945312 1033.070312 148.070312 C 1037.273438 153.195312 1041.351562 158.417969 1045.300781 163.742188 C 1049.246094 169.066406 1053.0625 174.484375 1056.746094 179.992188 C 1060.425781 185.503906 1063.972656 191.101562 1067.378906 196.789062 C 1070.789062 202.472656 1074.054688 208.238281 1077.179688 214.085938 C 1080.300781 219.929688 1083.28125 225.847656 1086.117188 231.839844 C 1088.949219 237.832031 1091.632812 243.890625 1094.171875 250.011719 C 1096.707031 256.136719 1099.09375 262.320312 1101.324219 268.558594 C 1103.558594 274.800781 1105.636719 281.09375 1107.5625 287.433594 C 1109.484375 293.777344 1111.253906 300.164062 1112.863281 306.59375 C 1114.472656 313.023438 1115.925781 319.488281 1117.21875 325.988281 C 1118.511719 332.488281 1119.644531 339.019531 1120.617188 345.574219 C 1121.589844 352.128906 1122.398438 358.707031 1123.050781 365.304688 C 1123.699219 371.898438 1124.1875 378.507812 1124.511719 385.128906 C 1124.835938 391.746094 1125 398.371094 1125 405 Z M 1125 405 " fill-opacity="1" fill-rule="nonzero"/><path fill="#ffffff" d="M 706.910156 429.6875 L 731.292969 429.6875 C 744.316406 429.6875 754.902344 419.09375 754.902344 406.078125 L 754.902344 326.914062 C 754.902344 313.890625 744.308594 303.296875 731.292969 303.296875 L 706.910156 303.296875 C 693.886719 303.296875 683.289062 313.890625 683.289062 326.914062 L 683.289062 406.078125 C 683.289062 419.09375 693.886719 429.6875 706.910156 429.6875 Z M 731.292969 418.566406 L 706.910156 418.566406 C 700.015625 418.566406 694.410156 412.960938 694.410156 406.070312 L 694.410156 369.933594 L 743.789062 369.933594 L 743.789062 406.070312 C 743.789062 412.960938 738.175781 418.566406 731.292969 418.566406 Z M 706.910156 314.417969 L 731.292969 314.417969 C 738.175781 314.417969 743.789062 320.023438 743.789062 326.914062 L 743.789062 358.820312 L 694.410156 358.820312 L 694.410156 326.914062 C 694.410156 320.023438 700.015625 314.417969 706.910156 314.417969 Z M 795.800781 203.148438 L 808.523438 183.027344 L 817.199219 183.027344 C 817.242188 183.027344 817.273438 183.027344 817.304688 183.027344 C 820.375 183.027344 822.863281 180.539062 822.863281 177.472656 C 822.863281 177.082031 822.820312 176.710938 822.75 176.34375 L 822.617188 127.046875 C 822.609375 124.503906 820.878906 122.285156 818.40625 121.671875 C 815.910156 121.0625 813.359375 122.195312 812.160156 124.441406 L 800.253906 146.691406 C 796.714844 142.617188 791.5 140.105469 785.738281 140.105469 C 780.78125 140.105469 776.148438 142.042969 772.683594 145.28125 C 769.214844 142.050781 764.582031 140.105469 759.625 140.105469 C 754.304688 140.105469 749.460938 142.242188 745.953125 145.777344 C 742.453125 142.242188 737.601562 140.105469 732.289062 140.105469 C 727.332031 140.105469 722.699219 142.042969 719.230469 145.28125 C 715.765625 142.050781 711.128906 140.105469 706.171875 140.105469 C 700.785156 140.105469 695.878906 142.300781 692.371094 145.914062 C 688.863281 142.300781 683.953125 140.105469 678.570312 140.105469 C 673.609375 140.105469 668.976562 142.042969 665.511719 145.28125 C 662.042969 142.050781 657.410156 140.105469 652.453125 140.105469 C 647.253906 140.105469 642.5 142.15625 639.015625 145.550781 L 627.726562 124.441406 C 626.527344 122.195312 623.957031 121.054688 621.480469 121.671875 C 619.007812 122.285156 617.277344 124.503906 617.269531 127.046875 L 617.128906 177.445312 C 617.121094 178.921875 617.714844 180.339844 618.75 181.390625 C 619.792969 182.4375 621.210938 183.027344 622.6875 183.027344 L 629.683594 183.027344 L 642.410156 203.148438 C 643.253906 204.484375 644.621094 205.34375 646.144531 205.617188 C 639.988281 215.816406 632.683594 228.695312 627.878906 251.261719 C 627.878906 251.269531 627.871094 251.285156 627.871094 251.292969 C 624.371094 267.90625 622.679688 285.0625 622.679688 303.726562 C 622.679688 307.207031 622.734375 311.089844 622.800781 315.445312 C 622.75 315.925781 622.75 316.386719 622.824219 316.855469 C 624.710938 412.882812 644.75 646.234375 644.953125 648.582031 C 645.195312 651.457031 647.609375 653.660156 650.492188 653.660156 L 663.203125 653.660156 C 671.398438 676.390625 685.761719 688.5 705.03125 688.5 L 733.179688 688.5 C 753.21875 688.5 768.730469 675.605469 775.289062 653.652344 L 787.707031 653.652344 C 790.597656 653.652344 792.996094 651.441406 793.25 648.566406 C 793.46875 645.949219 815.53125 385.949219 815.53125 303.710938 C 815.53125 285.046875 813.832031 267.898438 810.339844 251.277344 C 810.339844 251.269531 810.339844 251.269531 810.339844 251.269531 C 805.527344 228.6875 798.222656 215.816406 792.066406 205.609375 C 793.582031 205.34375 794.949219 204.484375 795.800781 203.148438 Z M 628.324219 149.121094 L 633.960938 159.652344 C 634.925781 161.457031 636.941406 162.589844 638.992188 162.589844 C 641.707031 162.589844 644.023438 160.621094 644.476562 157.949219 C 645.125 154.054688 648.484375 151.226562 652.460938 151.226562 C 656.089844 151.226562 659.183594 153.574219 660.171875 157.058594 C 660.84375 159.457031 663.03125 161.109375 665.519531 161.109375 C 668.007812 161.109375 670.191406 159.457031 670.867188 157.058594 C 671.855469 153.574219 674.957031 151.226562 678.578125 151.226562 C 682.554688 151.226562 685.90625 154.054688 686.554688 157.949219 C 687.007812 160.621094 689.324219 162.589844 692.039062 162.589844 L 692.710938 162.589844 C 695.425781 162.589844 697.742188 160.621094 698.195312 157.949219 C 698.84375 154.054688 702.203125 151.226562 706.179688 151.226562 C 709.808594 151.226562 712.90625 153.574219 713.890625 157.058594 C 714.566406 159.457031 716.75 161.109375 719.238281 161.109375 C 721.726562 161.109375 723.914062 159.457031 724.585938 157.058594 C 725.574219 153.574219 728.675781 151.226562 732.296875 151.226562 C 736.273438 151.226562 739.625 154.054688 740.273438 157.949219 C 740.726562 160.621094 743.449219 162.589844 746.164062 162.589844 C 748.882812 162.589844 751.203125 160.621094 751.648438 157.941406 C 752.292969 154.046875 755.65625 151.21875 759.625 151.21875 C 763.253906 151.21875 766.347656 153.566406 767.335938 157.050781 C 768.007812 159.449219 770.195312 161.101562 772.683594 161.101562 C 775.167969 161.101562 777.355469 159.449219 778.027344 157.050781 C 779.015625 153.566406 782.117188 151.21875 785.738281 151.21875 C 789.714844 151.21875 793.070312 154.046875 793.71875 157.941406 C 794.164062 160.621094 796.480469 162.589844 799.203125 162.589844 L 801.023438 162.589844 C 803.074219 162.589844 804.960938 161.464844 805.925781 159.652344 L 811.5625 149.121094 L 811.617188 171.90625 L 628.257812 171.90625 Z M 643 183.285156 L 795.191406 183.285156 L 788.03125 194.617188 L 650.167969 194.617188 Z M 656.789062 209.492188 C 657.574219 208.203125 658.277344 206.980469 659.015625 205.730469 L 779.179688 205.730469 C 779.914062 206.980469 780.628906 208.203125 781.414062 209.5 C 787.34375 219.285156 794.007812 230.414062 798.699219 250.453125 C 780.09375 267.4375 750.683594 277.578125 719.09375 277.578125 C 687.519531 277.578125 658.019531 267.527344 639.414062 250.558594 C 644.109375 230.378906 650.835938 219.308594 656.789062 209.492188 Z M 787.261719 585.183594 L 746.957031 585.183594 L 760.320312 456.378906 L 776.835938 437.074219 C 777.679688 436.097656 778.148438 434.855469 778.175781 433.5625 L 779.730469 349.863281 L 803.949219 328.339844 C 801.859375 394.574219 793.019531 512.664062 787.261719 585.183594 Z M 636.976562 263.046875 C 657.613281 279.246094 687.503906 288.707031 719.101562 288.707031 C 750.699219 288.707031 780.589844 279.246094 801.226562 263.046875 C 803.363281 275.976562 804.410156 289.371094 804.410156 303.71875 C 804.410156 306.617188 804.371094 309.816406 804.320312 313.152344 L 770.535156 343.171875 C 769.378906 344.203125 768.695312 345.675781 768.664062 347.230469 L 767.101562 431.367188 L 750.746094 450.472656 C 750.019531 451.332031 749.558594 452.394531 749.433594 453.511719 L 735.769531 585.183594 L 701.976562 585.183594 L 688.3125 453.511719 C 688.191406 452.394531 687.738281 451.332031 687 450.472656 L 670.648438 431.367188 L 669.082031 347.230469 C 669.058594 345.675781 668.378906 344.210938 667.210938 343.171875 L 633.878906 313.566406 C 633.832031 310.042969 633.785156 306.714844 633.785156 303.71875 C 633.792969 289.363281 634.835938 275.96875 636.976562 263.046875 Z M 634.261719 328.761719 L 658.027344 349.871094 L 659.582031 433.570312 C 659.605469 434.863281 660.078125 436.097656 660.917969 437.085938 L 677.433594 456.386719 L 690.800781 585.191406 L 650.882812 585.191406 C 645.132812 513.230469 636.34375 396.339844 634.261719 328.761719 Z M 733.179688 677.378906 L 705.03125 677.378906 C 691.769531 677.378906 681.75 669.472656 675.054688 653.652344 L 763.546875 653.652344 C 760.023438 663.007812 751.613281 677.378906 733.179688 677.378906 Z M 655.597656 642.539062 C 654.933594 634.675781 653.539062 618.136719 651.78125 596.304688 L 786.378906 596.304688 C 784.628906 618.117188 783.261719 634.667969 782.597656 642.539062 Z M 745.742188 606.609375 L 692.460938 606.609375 C 689.390625 606.609375 686.902344 609.09375 686.902344 612.164062 L 686.902344 626.972656 C 686.902344 630.042969 689.390625 632.527344 692.460938 632.527344 L 745.742188 632.527344 C 748.8125 632.527344 751.296875 630.042969 751.296875 626.972656 L 751.296875 612.164062 C 751.296875 609.09375 748.8125 606.609375 745.742188 606.609375 Z M 740.183594 621.414062 L 698.023438 621.414062 L 698.023438 617.730469 L 740.183594 617.730469 Z M 740.183594 621.414062 " fill-opacity="1" fill-rule="nonzero"/></svg>